<svg width="49" height="49" viewBox="0 0 49 49" fill="none" xmlns="http://www.w3.org/2000/svg">
<path d="M48.5161 46.2273L46.2693 48.5219C45.9506 48.8088 45.5681 48.9522 45.122 48.9522C44.6758 48.9522 44.2933 48.8088 43.9746 48.5219L36.7561 41.2556C34.8439 42.3392 32.8042 42.881 30.6371 42.881C27.2589 42.881 24.3746 41.6859 21.9844 39.2956C19.5942 36.9054 18.399 34.0211 18.399 30.6429C18.399 27.2647 19.5942 24.3805 21.9844 21.9902C24.3746 19.6 27.2589 18.4049 30.6371 18.4049C34.0153 18.4049 36.8995 19.6 39.2898 21.9902C41.68 24.3805 42.8751 27.2647 42.8751 30.6429C42.8751 32.8101 42.3333 34.8338 41.2498 36.7141L48.5161 43.9805C48.8348 44.2992 48.9942 44.6737 48.9942 45.1039C48.9942 45.5341 48.8348 45.9086 48.5161 46.2273ZM30.661 21.4644C28.1273 21.4644 25.9602 22.3567 24.1595 24.1415C22.3589 25.9262 21.4585 28.0854 21.4585 30.619C21.4585 33.1527 22.3589 35.3198 24.1595 37.1205C25.9602 38.9211 28.1273 39.8215 30.661 39.8215C33.1946 39.8215 35.3538 38.9211 37.1385 37.1205C38.9233 35.3198 39.8156 33.1527 39.8156 30.619C39.8156 28.0854 38.9233 25.9262 37.1385 24.1415C35.3538 22.3567 33.1946 21.4644 30.661 21.4644ZM33.6966 15.6322V15.3454C33.6966 14.4849 33.9994 13.7598 34.6049 13.1702C35.2104 12.5807 35.9275 12.2859 36.7561 12.2859H42.8751C43.7356 12.2859 44.4686 12.5807 45.0742 13.1702C45.6797 13.7598 45.9824 14.4849 45.9824 15.3454V30.6429H45.9346C45.9346 26.9779 44.7794 23.7351 42.4688 20.9146C40.1582 18.0941 37.2342 16.3333 33.6966 15.6322ZM18.399 21.4644V9.22634C18.399 8.36585 18.7018 7.64081 19.3073 7.05122C19.9129 6.46163 20.6299 6.16683 21.4585 6.16683H27.5776C28.4381 6.16683 29.1631 6.46163 29.7527 7.05122C30.3423 7.64081 30.6371 8.36585 30.6371 9.22634V15.3454C28.1831 15.3454 25.8885 15.8951 23.7532 16.9946C21.6179 18.0941 19.8332 19.5841 18.399 21.4644ZM18.399 39.7737C19.8332 41.6859 21.6179 43.1917 23.7532 44.2912C25.8885 45.3907 28.1831 45.9405 30.6371 45.9405H33.6966C33.6966 46.7691 33.4018 47.4862 32.8122 48.0917C32.2226 48.6972 31.4976 49 30.6371 49H3.10147C2.27286 49 1.55578 48.6972 0.950254 48.0917C0.344726 47.4862 0.0419617 46.7611 0.0419617 45.9166C0.0419617 45.072 0.336758 44.355 0.926352 43.7654C1.51595 43.1758 2.24099 42.881 3.10147 42.881V3.05951C3.10147 2.23089 3.40424 1.51382 4.00977 0.908293C4.61529 0.302764 5.33237 0 6.16099 0H12.28C13.1405 0 13.8655 0.302764 14.4551 0.908293C15.0447 1.51382 15.3395 2.23089 15.3395 3.05951V42.881H18.399V39.7737Z" fill="#292929"/>
</svg>
