<svg width="49" height="49" viewBox="0 0 49 49" fill="none" xmlns="http://www.w3.org/2000/svg">
<path d="M11.3823 4.23441C11.6422 4.35939 11.8616 4.55525 12.0151 4.79942C12.1686 5.04359 12.25 5.32616 12.25 5.61458C12.25 7.30916 12.887 8.28508 13.6853 9.47333L13.7445 9.55908C14.4223 10.5677 15.3125 11.8886 15.3125 13.7812C15.3125 15.7127 14.3386 17.4154 12.8543 18.426C13.2443 18.7527 13.5893 19.1549 13.8874 19.6367C14.8593 21.2088 15.3125 23.6119 15.3125 27.0623C15.3125 30.5576 14.8429 34.7553 14.0773 38.1077C13.6976 39.7737 13.2259 41.3111 12.6645 42.4646C12.3848 43.0383 12.0438 43.5977 11.6232 44.0367C11.2026 44.4675 10.5554 44.9269 9.69793 44.9269C8.84043 44.9269 8.19322 44.4675 7.77468 44.0367C7.3484 43.5697 6.99714 43.0393 6.73343 42.4646C6.16993 41.309 5.6983 39.7737 5.31855 38.1057C4.52219 34.4771 4.1082 30.7751 4.08335 27.0602C4.08335 23.6098 4.5366 21.2088 5.50843 19.6367C5.78568 19.1804 6.13449 18.7716 6.54151 18.426C5.78359 17.9115 5.16326 17.2191 4.73474 16.4094C4.30623 15.5997 4.08258 14.6973 4.08335 13.7812C4.08335 13.0299 4.08335 11.7375 4.8653 10.0695C5.63093 8.43616 7.08664 6.55987 9.76122 4.41816C9.98664 4.23785 10.2584 4.12493 10.5453 4.09242C10.8321 4.0599 11.1222 4.10913 11.3823 4.23441ZM7.14585 13.7792V13.7812C7.14585 14.4581 7.41472 15.1072 7.89333 15.5858C8.37194 16.0645 9.02107 16.3333 9.69793 16.3333C10.3748 16.3333 11.0239 16.0645 11.5025 15.5858C11.9811 15.1072 12.25 14.4581 12.25 13.7812C12.25 12.885 11.8723 12.2643 11.1434 11.1802L11.1189 11.1434C10.6514 10.4492 10.0981 9.62645 9.7061 8.57091C8.59747 9.69791 7.98497 10.633 7.63993 11.368C7.14585 12.4215 7.14585 13.1708 7.14585 13.7772V13.7792ZM8.1136 21.2456C7.60726 22.0663 7.14585 23.7487 7.14585 27.0623C7.14585 30.331 7.59093 34.3 8.30347 37.4258C8.6628 38.9979 9.07114 40.2739 9.48559 41.1232C9.56114 41.2805 9.6326 41.4111 9.69793 41.5214C9.76326 41.4111 9.83472 41.2805 9.91026 41.1232C10.3247 40.2739 10.7331 38.9958 11.0924 37.4258C11.807 34.302 12.25 30.333 12.25 27.0623C12.25 23.7487 11.7886 22.0663 11.2823 21.2456C11.1296 20.9693 10.8987 20.7441 10.6187 20.5984C10.3288 20.4721 10.0139 20.4135 9.69793 20.4269C9.2896 20.4269 8.99764 20.4902 8.77714 20.5984C8.49711 20.7441 8.2663 20.9693 8.1136 21.2456Z" fill="#292929"/>
<path d="M20.4167 30.4555C19.335 30.2741 18.2829 29.9472 17.2888 29.4837C17.3486 28.3257 17.3656 27.166 17.3399 26.0067C18.2607 26.6254 19.2999 27.0807 20.4167 27.3338V21.4375C20.4167 20.6253 20.7393 19.8463 21.3137 19.272C21.888 18.6976 22.6669 18.375 23.4792 18.375H31.6458C31.6457 16.6614 31.1664 14.982 30.262 13.5265C29.3576 12.071 28.0642 10.8975 26.5279 10.1385C24.9916 9.37943 23.2736 9.06518 21.5681 9.23122C19.8626 9.39727 18.2375 10.037 16.8764 11.0781C16.4681 9.94903 15.8862 9.0854 15.482 8.48515L15.4003 8.36265C17.2346 7.06956 19.389 6.30524 21.6281 6.15314C23.8673 6.00104 26.1052 6.467 28.0976 7.50015C30.0899 8.53331 31.7602 10.094 32.926 12.0117C34.0918 13.9295 34.7083 16.1307 34.7083 18.375H41.8542C42.6664 18.375 43.4454 18.6976 44.0197 19.272C44.594 19.8463 44.9167 20.6253 44.9167 21.4375V39.8125C44.9167 40.6247 44.594 41.4037 44.0197 41.978C43.4454 42.5523 42.6664 42.875 41.8542 42.875H23.4792C22.6669 42.875 21.888 42.5523 21.3137 41.978C20.7393 41.4037 20.4167 40.6247 20.4167 39.8125V30.4555ZM23.4792 30.5842V39.8125H41.8542V21.4375H34.3204C33.6843 23.8977 32.2994 26.0995 30.3571 27.7381C28.4149 29.3768 26.0114 30.3713 23.4792 30.5842ZM31.1232 21.4375H23.4792V27.5074C25.1946 27.315 26.8212 26.6438 28.173 25.5703C29.5248 24.4969 30.5472 23.0647 31.1232 21.4375Z" fill="#292929"/>
</svg>
